<svg width="30" height="25" viewBox="0 0 30 25" fill="none" xmlns="http://www.w3.org/2000/svg">
<path d="M14.9998 13.8333L14.1516 15.045C14.6609 15.4015 15.3388 15.4015 15.8481 15.045L14.9998 13.8333ZM4.33317 3.31242H25.6665V0.354085H4.33317V3.31242ZM25.6665 3.31242C26.3163 3.31242 26.854 3.85017 26.854 4.49992H29.8123C29.8123 2.21633 27.9501 0.354085 25.6665 0.354085V3.31242ZM26.854 4.49992V20.4999H29.8123V4.49992H26.854ZM26.854 20.4999C26.854 21.1497 26.3163 21.6874 25.6665 21.6874V24.6458C27.9501 24.6458 29.8123 22.7835 29.8123 20.4999H26.854ZM25.6665 21.6874H4.33317V24.6458H25.6665V21.6874ZM4.33317 21.6874C3.68343 21.6874 3.14567 21.1497 3.14567 20.4999H0.187337C0.187337 22.7835 2.04958 24.6458 4.33317 24.6458V21.6874ZM3.14567 20.4999V4.49992H0.187337V20.4999H3.14567ZM3.14567 4.49992C3.14567 3.85017 3.68343 3.31242 4.33317 3.31242V0.354085C2.04958 0.354085 0.187337 2.21633 0.187337 4.49992H3.14567ZM27.4849 3.28814L14.1516 12.6215L15.8481 15.045L29.1814 5.7117L27.4849 3.28814ZM15.8481 12.6215L2.51475 3.28814L0.818258 5.7117L14.1516 15.045L15.8481 12.6215Z" fill="#945ED1"/>
</svg>
