<svg width="104" height="83" viewBox="0 0 104 83" fill="none" xmlns="http://www.w3.org/2000/svg">
<path d="M44.9383 8.97297L25.037 47.1081L15.0864 49.6718C16.1564 47.3217 17.4403 45.399 18.9383 43.9035C20.6502 42.408 22.5761 41.6602 24.716 41.6602C29.2099 41.6602 33.2757 43.4762 36.9136 47.1081C40.7654 50.74 42.6914 55.4402 42.6914 61.2085C42.6914 66.9768 40.5514 72.1042 36.2716 76.5907C32.2058 80.8636 27.2839 83 21.5062 83C15.7284 83 10.6996 80.8636 6.41975 76.5907C2.13992 72.3179 0 67.1905 0 61.2085C0 58.6448 0.534979 55.7606 1.60494 52.556C2.6749 49.1377 4.49383 44.8649 7.06173 39.7374L28.5679 0L44.9383 8.97297ZM104 8.97297L84.0988 47.1081L74.1481 49.6718C75.2181 47.3217 76.502 45.399 78 43.9035C79.7119 42.408 81.6379 41.6602 83.7778 41.6602C88.2716 41.6602 92.3374 43.4762 95.9753 47.1081C99.8272 50.74 101.753 55.4402 101.753 61.2085C101.753 66.9768 99.6132 72.1042 95.3333 76.5907C91.2675 80.8636 86.3457 83 80.5679 83C74.7901 83 69.7613 80.8636 65.4815 76.5907C61.2016 72.3179 59.0617 67.1905 59.0617 61.2085C59.0617 58.6448 59.5967 55.7606 60.6667 52.556C61.7366 49.1377 63.5555 44.8649 66.1235 39.7374L87.6296 0L104 8.97297Z" fill="white"/>
</svg>
